<?xml version="1.0" standalone="no"?>
<!DOCTYPE svg PUBLIC "-//W3C//DTD SVG 20010904//EN"
 "http://www.w3.org/TR/2001/REC-SVG-20010904/DTD/svg10.dtd">
<svg version="1.0" xmlns="http://www.w3.org/2000/svg"
 width="300.000000pt" height="146.000000pt" viewBox="0 0 300.000000 146.000000"
 preserveAspectRatio="xMidYMid meet">
<metadata>
Created by potrace 1.10, written by Peter Selinger 2001-2011
</metadata>
<g transform="translate(0.000000,146.000000) scale(0.100000,-0.100000)"
fill="#000000" stroke="none">
<path d="M398 1020 c-311 -53 -439 -255 -244 -389 121 -84 348 -121 549 -90
77 12 103 24 71 35 -10 3 -26 8 -34 11 -8 3 -87 6 -175 7 -175 2 -269 18 -365
62 -198 91 -147 214 118 286 102 27 349 30 461 4 151 -34 251 -102 251 -171 0
-26 -9 -41 -42 -70 -37 -34 -60 -85 -39 -85 19 0 90 91 102 128 11 37 9 45
-12 89 -60 120 -248 194 -486 192 -59 -1 -129 -5 -155 -9z"/>
<path d="M1188 891 c-39 -31 -53 -80 -34 -124 24 -60 92 -81 175 -56 35 10 36
12 37 58 l0 48 -53 0 c-48 0 -53 -2 -53 -21 0 -17 6 -22 27 -21 35 0 41 -22 9
-31 -38 -9 -74 3 -93 32 -15 23 -15 29 -2 52 22 40 42 48 89 35 36 -9 42 -8
51 9 6 11 8 22 5 25 -3 3 -33 7 -68 10 -54 4 -67 2 -90 -16z"/>
<path d="M1494 872 c-27 -3 -33 -9 -44 -45 -7 -23 -21 -59 -31 -79 -24 -47
-24 -48 6 -48 18 0 25 5 25 20 0 17 7 20 45 20 42 0 50 -6 46 -32 0 -5 13 -8
30 -8 20 0 28 4 23 11 -4 6 -21 46 -38 88 -30 73 -32 76 -62 73z m24 -84 c11
-27 10 -28 -18 -28 -33 0 -35 5 -20 46 11 29 19 25 38 -18z"/>
<path d="M1645 788 l0 -88 78 0 c70 0 77 2 77 20 0 18 -7 20 -56 20 l-57 0 6
68 7 67 -28 1 -27 1 0 -89z"/>
<path d="M2085 788 c0 -81 2 -88 20 -88 18 0 20 5 17 61 -4 69 7 72 28 9 17
-50 27 -58 39 -28 5 13 16 39 25 58 l15 35 -2 -68 c-2 -65 -1 -67 23 -67 l25
0 -3 87 -3 88 -34 0 c-18 0 -32 -2 -30 -5 2 -3 -3 -21 -12 -40 l-14 -35 -14
25 c-8 14 -14 32 -15 40 0 10 -10 15 -32 15 l-33 0 0 -87z"/>
<path d="M2570 788 l0 -88 26 0 c25 0 26 2 21 35 -5 30 -3 35 13 35 20 0 55
-52 43 -64 -4 -3 10 -6 31 -6 l37 0 -25 33 c-25 32 -25 33 -6 45 23 14 27 64
8 80 -7 6 -43 12 -81 14 l-67 3 0 -87z m120 32 c0 -17 -7 -20 -40 -20 -33 0
-40 3 -40 20 0 17 7 20 40 20 33 0 40 -3 40 -20z"/>
<path d="M2770 852 c0 -21 3 -23 31 -17 l31 7 -4 -71 -3 -71 28 0 29 0 -3 68
-4 67 33 -3 c27 -2 32 1 32 20 0 22 -3 23 -85 23 -82 0 -85 -1 -85 -23z"/>
<path d="M1891 848 c-5 -13 -20 -51 -34 -85 l-26 -63 24 0 c14 0 25 7 28 20 4
16 14 20 47 20 33 0 43 -4 47 -20 3 -13 14 -20 29 -20 25 0 30 9 16 26 -5 5
-22 39 -37 77 -25 61 -31 67 -57 67 -20 0 -31 -6 -37 -22z m57 -58 c11 -29 10
-30 -19 -30 -16 0 -29 2 -29 4 0 1 5 17 11 34 13 37 23 34 37 -8z"/>
<path d="M2380 856 c0 -7 -13 -45 -29 -85 l-30 -71 23 0 c15 0 26 7 29 20 4
16 14 20 45 20 32 0 42 -4 47 -20 4 -13 15 -20 30 -20 l24 0 -34 81 c-19 44
-35 83 -35 85 0 2 -16 4 -35 4 -23 0 -35 -5 -35 -14z m58 -66 c11 -29 10 -30
-19 -30 -32 0 -35 7 -18 44 14 30 23 27 37 -14z"/>
<path d="M215 835 c-14 -13 -25 -36 -25 -50 0 -14 11 -37 25 -50 l24 -25 -22
0 c-15 -1 -10 -5 18 -16 63 -24 84 -27 100 -14 21 18 19 32 -3 19 -12 -7 -31
-9 -48 -5 l-29 8 35 14 c42 18 50 29 50 71 0 22 -8 38 -26 52 -35 28 -69 26
-99 -4z m87 -9 c4 -6 8 -28 8 -48 0 -36 -19 -58 -49 -58 -19 0 -41 32 -41 61
0 53 56 84 82 45z"/>
<path d="M361 846 c5 -6 9 -31 9 -57 0 -52 23 -79 65 -79 32 0 45 20 45 70 0
25 5 51 11 57 7 7 3 12 -15 15 -21 4 -24 2 -16 -8 6 -7 10 -34 8 -61 -3 -46
-4 -48 -33 -48 -29 0 -30 2 -33 48 -2 27 1 54 7 60 7 9 0 12 -24 12 -22 0 -30
-3 -24 -9z"/>
<path d="M560 849 c-30 -3 -49 -6 -42 -7 14 -2 17 -103 3 -118 -6 -5 10 -10
44 -11 45 -2 56 1 65 16 15 28 12 35 -6 17 -21 -22 -61 -21 -67 2 -3 9 -4 33
-3 52 1 41 26 52 57 24 18 -16 19 -16 19 4 0 27 -5 29 -70 21z"/>
<path d="M698 853 c-44 -4 -47 -6 -39 -26 9 -22 7 -89 -2 -104 -3 -4 20 -8 50
-8 50 0 57 3 65 24 8 24 8 24 -10 8 -10 -9 -31 -17 -45 -17 -26 0 -27 2 -27
55 0 51 2 55 23 55 13 0 28 -5 35 -12 9 -9 12 -7 12 10 0 12 -3 21 -7 20 -5
-1 -29 -3 -55 -5z"/>
<path d="M816 815 l27 -36 -33 -34 -34 -35 27 0 c17 0 25 4 21 13 -2 7 2 21 9
32 14 18 15 18 26 -3 7 -13 10 -26 7 -30 -2 -4 11 -8 30 -9 l34 -2 -29 30
c-16 16 -38 47 -48 69 -13 29 -24 40 -41 40 l-23 0 27 -35z"/>
<path d="M720 805 c-10 -11 -9 -18 4 -30 15 -15 16 -14 16 14 0 35 -3 37 -20
16z"/>
<path d="M636 671 c-7 -10 28 -35 64 -46 14 -4 31 -12 38 -17 8 -7 12 -7 12 2
0 9 14 11 50 8 28 -3 53 -8 56 -11 10 -9 -28 -58 -42 -53 -15 6 -54 -68 -54
-102 0 -44 50 -18 68 35 6 18 29 59 51 92 l40 59 -72 7 c-40 4 -92 14 -117 21
-52 16 -86 18 -94 5z"/>
<path d="M1733 590 c0 -36 2 -50 4 -32 2 17 2 47 0 65 -2 17 -4 3 -4 -33z"/>
<path d="M2053 590 c0 -36 2 -50 4 -32 2 17 2 47 0 65 -2 17 -4 3 -4 -33z"/>
<path d="M2320 590 c0 -33 4 -60 10 -60 6 0 10 27 10 60 0 33 -4 60 -10 60 -6
0 -10 -27 -10 -60z"/>
<path d="M2370 585 c0 -35 13 -47 24 -22 5 10 7 10 12 0 11 -25 24 -13 24 22
0 19 -4 35 -10 35 -5 0 -10 -5 -10 -12 0 -9 -3 -9 -12 0 -20 20 -28 14 -28
-23z"/>
<path d="M1500 579 c0 -24 4 -30 18 -27 10 2 18 14 20 31 3 22 -1 27 -17 27
-17 0 -21 -6 -21 -31z"/>
<path d="M1550 580 c0 -23 4 -30 20 -30 11 0 20 5 20 10 0 6 -4 10 -10 10 -12
0 -9 22 5 32 6 4 0 8 -12 8 -19 0 -23 -6 -23 -30z"/>
<path d="M1600 580 c0 -23 4 -30 20 -30 11 0 20 5 20 10 0 6 -4 10 -10 10 -12
0 -9 22 5 32 6 4 0 8 -12 8 -19 0 -23 -6 -23 -30z"/>
<path d="M1659 608 c-10 -43 -3 -70 12 -47 6 10 9 11 9 2 0 -7 4 -13 8 -13 4
0 8 12 7 27 0 18 -6 29 -17 31 -10 2 -18 2 -19 0z"/>
<path d="M1777 603 c-12 -12 -7 -23 11 -24 15 0 15 -1 -2 -8 -14 -5 -16 -10
-8 -15 7 -4 17 -4 22 -1 14 9 12 35 -2 35 -9 0 -8 4 2 10 13 8 13 10 -1 10 -9
0 -19 -3 -22 -7z"/>
<path d="M1820 580 c0 -34 7 -38 26 -12 19 25 17 42 -6 42 -16 0 -20 -7 -20
-30z"/>
<path d="M1870 580 c0 -16 5 -30 10 -30 6 0 10 14 10 30 0 17 -4 30 -10 30 -5
0 -10 -13 -10 -30z"/>
<path d="M1900 578 c0 -25 3 -29 10 -18 6 10 10 11 10 3 0 -28 17 -11 18 17 0
23 -4 30 -19 30 -15 0 -19 -7 -19 -32z"/>
<path d="M1978 598 c7 -7 13 -21 13 -32 1 -21 1 -21 6 -1 3 11 10 26 15 33 8
9 4 12 -18 12 -22 0 -25 -3 -16 -12z"/>
<path d="M2094 595 c3 -9 6 -23 6 -31 0 -20 20 -17 21 4 0 14 2 14 9 -3 8 -21
8 -21 24 28 3 9 1 17 -4 17 -6 0 -10 -6 -10 -12 0 -8 -3 -9 -8 -3 -4 6 -15 11
-26 13 -14 3 -17 -1 -12 -13z"/>
<path d="M2190 580 c0 -16 5 -30 10 -30 6 0 10 8 10 17 0 15 2 14 15 -3 13
-18 14 -17 15 16 0 23 -3 30 -9 21 -6 -9 -11 -10 -15 -2 -13 21 -26 11 -26
-19z"/>
<path d="M2250 580 c0 -23 4 -30 20 -30 11 0 20 5 20 10 0 6 -8 10 -17 10 -15
0 -16 2 -3 10 13 9 13 10 0 11 -10 0 -8 3 5 9 19 8 19 9 -2 9 -19 1 -23 -4
-23 -29z"/>
<path d="M2447 603 c-11 -10 -8 -41 5 -49 14 -9 38 23 31 42 -5 15 -25 19 -36
7z"/>
<path d="M2495 583 c2 -16 4 -30 4 -33 1 -3 6 2 11 10 9 13 10 13 11 0 0 -8 4
-4 8 10 10 31 5 40 -19 40 -15 0 -18 -6 -15 -27z"/>
<path d="M2550 580 c0 -23 4 -30 20 -30 11 0 20 5 20 10 0 6 -8 10 -17 10 -15
0 -16 2 -3 10 13 9 13 10 0 11 -10 0 -8 3 5 9 19 8 19 9 -2 9 -19 1 -23 -4
-23 -29z"/>
</g>
</svg>
